<svg width="95" height="95" viewBox="0 0 95 95" fill="none" xmlns="http://www.w3.org/2000/svg">
<g clip-path="url(#clip0_8038_63406)">
<rect width="94.3479" height="94.3479" rx="23.587" fill="white"/>
<rect width="94.3479" height="94.3479" rx="23.587" fill="url(#paint0_linear_8038_63406)"/>
<rect x="-0.546926" y="-0.27356" width="94.8948" height="94.8948" rx="9.48948" fill="black"/>
<g clip-path="url(#clip1_8038_63406)">
<path d="M45.3767 71.5239C40.3801 71.5239 35.3836 71.5182 30.387 71.5318C29.7942 71.533 29.4621 71.3119 29.2274 70.7644C28.3966 68.8329 27.5271 66.9184 26.6679 64.9994C26.3347 64.2569 26.643 63.7706 27.4625 63.7706C37.5123 63.7672 47.5621 63.7661 57.6119 63.7513C58.1685 63.7513 58.4757 63.9678 58.6911 64.4643C59.5423 66.4174 60.4151 68.3614 61.2845 70.3065C61.5951 71.0025 61.297 71.5024 60.5376 71.5046C58.0529 71.5137 55.5693 71.5126 53.0847 71.5137C50.515 71.5137 47.9464 71.5137 45.3767 71.5137V71.5239Z" fill="white"/>
<path d="M51.7913 31.3629C46.8321 31.3629 41.873 31.3629 36.9149 31.3629C36.7925 31.3629 36.669 31.3583 36.5466 31.3629C36.1487 31.3742 35.8959 31.186 35.7361 30.8256C34.9619 29.0754 34.1798 27.3287 33.401 25.5808C33.2786 25.3053 33.1562 25.0288 33.0349 24.7522C32.7651 24.1378 33.0712 23.6368 33.7388 23.6232C34.4087 23.6096 35.0798 23.6164 35.7508 23.6164C45.1296 23.6085 54.5095 23.6062 63.8894 23.5869C64.5219 23.5858 64.8857 23.8046 65.1396 24.3985C65.9648 26.3323 66.8399 28.2446 67.6969 30.1647C68.004 30.8539 67.6855 31.3493 66.9238 31.3493C61.8796 31.3504 56.8355 31.3493 51.7924 31.3493V31.3629H51.7913Z" fill="white"/>
<path d="M31.6657 61.8206C30.4947 61.8206 29.3238 61.824 28.1529 61.8195C27.5895 61.8172 27.2415 61.476 27.3197 60.9909C27.3469 60.8231 27.4399 60.652 27.5408 60.5114C29.6457 57.5744 31.7575 54.6409 33.867 51.7062C35.8268 48.9789 37.7901 46.2528 39.742 43.5199C39.9902 43.1719 40.2929 43.0144 40.718 43.0166C43.0133 43.0246 45.3076 43.0189 47.603 43.02C48.2139 43.02 48.5642 43.3125 48.5109 43.8067C48.4916 43.9824 48.3987 44.1671 48.2933 44.3145C46.4105 46.9465 44.5209 49.574 42.6325 52.2016C40.4742 55.2054 38.3092 58.2047 36.1646 61.2176C35.8574 61.6495 35.5026 61.8342 34.9812 61.824C33.8772 61.8025 32.7708 61.8172 31.6668 61.8172V61.8206H31.6657Z" fill="white"/>
<path d="M50.1919 52.1031C49.0493 52.1031 47.9067 52.1031 46.7642 52.1031C46.4434 52.1031 46.1362 52.0623 45.9367 51.7675C45.7508 51.4944 45.7848 51.1702 46.0342 50.8233C46.9863 49.4971 47.9396 48.172 48.8918 46.8469C50.9786 43.944 53.0643 41.0399 55.1499 38.1358C56.1905 36.6883 57.2379 35.2442 58.2694 33.7899C58.5052 33.4578 58.7965 33.3093 59.1989 33.3104C61.4183 33.3138 63.6378 33.3081 65.8572 33.307C65.9989 33.307 66.1406 33.307 66.2823 33.3183C66.9556 33.3659 67.2526 33.9395 66.8785 34.5051C66.535 35.0232 66.1576 35.5196 65.7948 36.0252C63.317 39.4722 60.8402 42.9193 58.3623 46.3663C57.1064 48.1131 55.8459 49.8564 54.6002 51.61C54.3497 51.9636 54.0425 52.111 53.6197 52.1076C52.4771 52.0974 51.3345 52.1042 50.1919 52.1042V52.1031Z" fill="white"/>
<path d="M45.5275 33.3138C48.503 33.3138 51.4773 33.3138 54.4528 33.3138C54.8416 33.3138 55.2304 33.3252 55.4311 33.731C55.6249 34.1243 55.4039 34.4349 55.1839 34.7409C53.767 36.7087 52.349 38.6754 50.9389 40.6477C50.7269 40.9447 50.4594 41.0739 50.099 41.0739C44.4699 41.0739 38.8408 41.0773 33.2118 41.0796C33.146 41.0796 33.0791 41.0796 33.0134 41.0762C32.348 41.0445 32.0329 40.5242 32.3458 39.9313C33.4271 37.8899 34.5244 35.8563 35.6092 33.8171C35.8087 33.4419 36.1158 33.324 36.5171 33.324C39.5209 33.3286 42.5236 33.3263 45.5275 33.3263V33.3138Z" fill="white"/>
<path d="M48.8136 61.8152C45.8097 61.8152 42.8059 61.8152 39.8021 61.8152C39.233 61.8152 38.9236 61.643 38.876 61.2281C38.851 61.0161 38.9157 60.7475 39.0392 60.574C40.4913 58.5258 41.9626 56.4922 43.4259 54.453C43.6175 54.1855 43.8612 54.0597 44.1933 54.0597C49.8791 54.0597 55.566 54.054 61.2517 54.0518C61.9953 54.0518 62.3285 54.5834 61.9874 55.2227C60.9173 57.2279 59.8382 59.2274 58.775 61.2371C58.5641 61.6361 58.2717 61.8016 57.8239 61.8005C54.8201 61.7914 51.8163 61.796 48.8124 61.796C48.8124 61.8028 48.8124 61.8096 48.8124 61.8164L48.8136 61.8152Z" fill="white"/>
<path d="M30.0878 39.292C29.6831 39.2263 29.4791 39.0121 29.3419 38.706C29.0381 38.0259 28.7343 37.3469 28.4317 36.6668C27.8763 35.4188 27.3276 34.1674 26.7632 32.9228C26.6237 32.6145 26.6101 32.3367 26.7722 32.0341C27.8695 29.9915 28.961 27.9455 30.0549 25.9006C30.2057 25.6195 30.4414 25.4529 30.7599 25.4665C31.0785 25.4801 31.3006 25.6694 31.4299 25.9596C32.2993 27.9137 33.163 29.8702 34.037 31.8221C34.1832 32.1497 34.1322 32.441 33.9723 32.738C32.9737 34.5981 31.9773 36.4605 30.9787 38.3206C30.8722 38.5201 30.7849 38.7411 30.6364 38.9032C30.4879 39.0642 30.2737 39.1639 30.0878 39.2898V39.292Z" fill="white"/>
<path d="M60.1839 62.8819C60.2395 62.7357 60.2825 62.5702 60.3608 62.424C61.4331 60.4109 62.5099 58.4 63.5845 56.388C63.7409 56.0944 63.9608 55.8836 64.3133 55.8938C64.6659 55.9029 64.8756 56.1216 65.0116 56.4277C65.8799 58.3819 66.7481 60.3372 67.621 62.2902C67.749 62.577 67.706 62.8377 67.5643 63.1007C66.4795 65.1286 65.3959 67.1576 64.3122 69.1855C64.1592 69.4711 63.9325 69.6661 63.597 69.6593C63.2433 69.6525 63.037 69.4258 62.901 69.1209C62.035 67.1757 61.1678 65.2306 60.3052 63.2843C60.2519 63.1653 60.2293 63.0338 60.1839 62.8819Z" fill="white"/>
</g>
</g>
<defs>
<linearGradient id="paint0_linear_8038_63406" x1="47.1739" y1="0" x2="47.1739" y2="94.3479" gradientUnits="userSpaceOnUse">
<stop stop-color="white"/>
<stop offset="1" stop-color="#D0D5DD"/>
</linearGradient>
<clipPath id="clip0_8038_63406">
<rect width="94.3479" height="94.3479" rx="23.587" fill="white"/>
</clipPath>
<clipPath id="clip1_8038_63406">
<rect width="41.2772" height="47.9446" fill="white" transform="translate(26.5353 23.5869)"/>
</clipPath>
</defs>
</svg>
