<svg width="62" height="24" viewBox="0 0 62 24" fill="none" xmlns="http://www.w3.org/2000/svg">
<g clip-path="url(#clip0_8038_43151)">
<path d="M11.2877 19.9974C9.62026 19.9974 7.95282 19.9955 6.28537 20.0001C6.08753 20.0004 5.9767 19.9267 5.89839 19.744C5.62112 19.0994 5.33098 18.4605 5.04424 17.82C4.93303 17.5723 5.03592 17.41 5.30941 17.41C8.66322 17.4089 12.017 17.4085 15.3708 17.4036C15.5566 17.4036 15.6591 17.4758 15.731 17.6415C16.015 18.2933 16.3063 18.942 16.5965 19.5911C16.7001 19.8234 16.6006 19.9902 16.3472 19.991C15.518 19.994 14.6892 19.9936 13.86 19.994C13.0024 19.994 12.1453 19.994 11.2877 19.994V19.9974Z" fill="black"/>
<path d="M13.4284 6.59498C11.7735 6.59498 10.1185 6.59498 8.46391 6.59498C8.42305 6.59498 8.38182 6.59347 8.34097 6.59498C8.20819 6.59877 8.12384 6.53597 8.0705 6.41568C7.81214 5.83162 7.55112 5.2487 7.29125 4.66539C7.25039 4.57347 7.20954 4.48117 7.16906 4.38887C7.07903 4.18384 7.18117 4.01665 7.40397 4.01211C7.62754 4.00757 7.85148 4.00984 8.07542 4.00984C11.2053 4.00719 14.3355 4.00643 17.4658 4C17.6769 3.99962 17.7983 4.07263 17.883 4.27085C18.1584 4.91619 18.4504 5.55434 18.7364 6.19515C18.8389 6.42514 18.7326 6.59045 18.4784 6.59045C16.7951 6.59082 15.1118 6.59045 13.4288 6.59045V6.59498H13.4284Z" fill="black"/>
<path d="M6.71208 16.7594C6.32132 16.7594 5.93056 16.7605 5.5398 16.759C5.3518 16.7582 5.23567 16.6444 5.26177 16.4825C5.27085 16.4265 5.30186 16.3694 5.33553 16.3225C6.03799 15.3424 6.74272 14.3634 7.4467 13.384C8.10074 12.4739 8.75591 11.5641 9.40731 10.6521C9.49015 10.536 9.59115 10.4834 9.733 10.4841C10.499 10.4868 11.2646 10.4849 12.0307 10.4853C12.2346 10.4853 12.3514 10.5829 12.3337 10.7478C12.3272 10.8064 12.2962 10.8681 12.261 10.9173C11.6327 11.7956 11.0021 12.6725 10.3719 13.5493C9.65167 14.5518 8.92917 15.5527 8.21346 16.5581C8.11095 16.7023 7.99255 16.7639 7.81854 16.7605C7.4501 16.7533 7.0809 16.7582 6.71246 16.7582V16.7594H6.71208Z" fill="black"/>
<path d="M12.8947 13.5164C12.5134 13.5164 12.1321 13.5164 11.7508 13.5164C11.6437 13.5164 11.5412 13.5028 11.4747 13.4044C11.4126 13.3132 11.424 13.205 11.5072 13.0893C11.8249 12.6467 12.1431 12.2045 12.4608 11.7623C13.1572 10.7935 13.8533 9.82438 14.5493 8.85524C14.8966 8.37218 15.2461 7.89025 15.5903 7.40492C15.669 7.29409 15.7662 7.24453 15.9005 7.24491C16.6412 7.24604 17.3818 7.24415 18.1225 7.24377C18.1698 7.24377 18.2171 7.24377 18.2644 7.24756C18.4891 7.26344 18.5882 7.45485 18.4633 7.64361C18.3487 7.81649 18.2228 7.98217 18.1017 8.15088C17.2748 9.30123 16.4483 10.4516 15.6213 11.6019C15.2022 12.1848 14.7816 12.7666 14.3658 13.3518C14.2822 13.4698 14.1797 13.519 14.0386 13.5179C13.6573 13.5145 13.276 13.5167 12.8947 13.5167V13.5164Z" fill="black"/>
<path d="M11.338 7.24597C12.331 7.24597 13.3236 7.24597 14.3166 7.24597C14.4463 7.24597 14.5761 7.24975 14.643 7.38518C14.7077 7.51644 14.6339 7.62009 14.5605 7.72222C14.0877 8.37891 13.6145 9.03522 13.1439 9.69343C13.0732 9.79253 12.9839 9.83566 12.8636 9.83566C10.9851 9.83566 9.10654 9.83679 7.22802 9.83755C7.20608 9.83755 7.18376 9.83755 7.16182 9.83641C6.93977 9.82582 6.83461 9.65219 6.93901 9.45436C7.29989 8.77308 7.66606 8.09445 8.02807 7.41393C8.09465 7.28872 8.19716 7.24938 8.33107 7.24938C9.33351 7.25089 10.3356 7.25013 11.338 7.25013V7.24597Z" fill="black"/>
<path d="M12.4346 16.7574C11.4322 16.7574 10.4298 16.7574 9.42734 16.7574C9.23744 16.7574 9.13417 16.6999 9.11828 16.5615C9.10996 16.4908 9.13152 16.4011 9.17275 16.3432C9.65733 15.6597 10.1483 14.9811 10.6367 14.3005C10.7006 14.2113 10.7819 14.1693 10.8928 14.1693C12.7902 14.1693 14.688 14.1674 16.5855 14.1666C16.8336 14.1666 16.9448 14.344 16.831 14.5574C16.4739 15.2266 16.1138 15.8938 15.7589 16.5645C15.6886 16.6977 15.591 16.7529 15.4416 16.7525C14.4391 16.7495 13.4367 16.751 12.4343 16.751C12.4343 16.7533 12.4343 16.7556 12.4343 16.7578L12.4346 16.7574Z" fill="black"/>
<path d="M6.18554 9.24118C6.05049 9.21924 5.9824 9.14775 5.93663 9.04561C5.83525 8.81865 5.73387 8.59206 5.63287 8.36509C5.44752 7.94861 5.26443 7.53099 5.07605 7.11564C5.02952 7.01275 5.02498 6.92007 5.07907 6.81907C5.44525 6.13742 5.80953 5.45463 6.17457 4.77221C6.22488 4.6784 6.30356 4.62279 6.40985 4.62733C6.51615 4.63187 6.59029 4.69505 6.63342 4.79188C6.92355 5.44403 7.2118 6.09694 7.50345 6.74833C7.55225 6.85766 7.53523 6.95487 7.48189 7.05398C7.14863 7.67474 6.81612 8.29625 6.48286 8.917C6.4473 8.98358 6.41818 9.05734 6.36862 9.11143C6.31907 9.16515 6.24757 9.19844 6.18554 9.24043V9.24118Z" fill="black"/>
<path d="M16.2292 17.1134C16.2477 17.0647 16.2621 17.0094 16.2882 16.9606C16.646 16.2888 17.0054 15.6177 17.364 14.9463C17.4162 14.8483 17.4896 14.778 17.6073 14.7814C17.7249 14.7844 17.7949 14.8574 17.8403 14.9595C18.13 15.6117 18.4198 16.2642 18.7111 16.916C18.7538 17.0117 18.7394 17.0987 18.6922 17.1865C18.3301 17.8632 17.9685 18.5403 17.6069 19.217C17.5558 19.3124 17.4801 19.3774 17.3682 19.3752C17.2502 19.3729 17.1813 19.2972 17.1359 19.1955C16.8469 18.5464 16.5575 17.8972 16.2697 17.2477C16.2519 17.208 16.2443 17.1641 16.2292 17.1134Z" fill="black"/>
</g>
<path d="M26.6452 17V14.6438L31.4978 9.06185V8.83745H26.7854V7.1825H33.4333V9.5387L28.5806 15.1207V15.345H33.4613V17H26.6452ZM38.1226 17.1964C37.4307 17.1964 36.8183 17.0514 36.2854 16.7616C35.7618 16.4624 35.3504 16.0463 35.0512 15.5133C34.7613 14.971 34.6164 14.3352 34.6164 13.6059V13.4376C34.6164 12.7083 34.7613 12.0772 35.0512 11.5443C35.341 11.002 35.7477 10.5859 36.2713 10.296C36.7949 9.99685 37.4027 9.84725 38.0946 9.84725C38.7771 9.84725 39.3709 10.0015 39.8758 10.3101C40.3807 10.6093 40.7734 11.03 41.0539 11.5723C41.3344 12.1053 41.4746 12.727 41.4746 13.4376V14.0407H36.4116C36.4303 14.5176 36.6079 14.9056 36.9445 15.2048C37.2811 15.504 37.6925 15.6536 38.1787 15.6536C38.6743 15.6536 39.0389 15.5461 39.2727 15.331C39.5064 15.116 39.6841 14.8776 39.8056 14.6158L41.2502 15.3731C41.1193 15.6162 40.9276 15.8827 40.6752 16.1725C40.4321 16.453 40.1048 16.6961 39.6934 16.9018C39.282 17.0982 38.7584 17.1964 38.1226 17.1964ZM36.4256 12.7224H39.6794C39.642 12.3203 39.4784 11.9977 39.1885 11.7546C38.908 11.5116 38.5387 11.39 38.0806 11.39C37.6037 11.39 37.225 11.5116 36.9445 11.7546C36.664 11.9977 36.4911 12.3203 36.4256 12.7224ZM46.3574 17.1964C45.6655 17.1964 45.0437 17.0561 44.4921 16.7756C43.9404 16.4951 43.5056 16.0884 43.1877 15.5554C42.8698 15.0225 42.7109 14.382 42.7109 13.634V13.4096C42.7109 12.6616 42.8698 12.0211 43.1877 11.4882C43.5056 10.9552 43.9404 10.5485 44.4921 10.268C45.0437 9.9875 45.6655 9.84725 46.3574 9.84725C47.0493 9.84725 47.6711 9.9875 48.2227 10.268C48.7744 10.5485 49.2091 10.9552 49.527 11.4882C49.8449 12.0211 50.0039 12.6616 50.0039 13.4096V13.634C50.0039 14.382 49.8449 15.0225 49.527 15.5554C49.2091 16.0884 48.7744 16.4951 48.2227 16.7756C47.6711 17.0561 47.0493 17.1964 46.3574 17.1964ZM46.3574 15.6255C46.8997 15.6255 47.3485 15.4526 47.7038 15.1066C48.0591 14.7513 48.2367 14.2464 48.2367 13.5919V13.4517C48.2367 12.7972 48.0591 12.2969 47.7038 11.951C47.3578 11.5957 46.909 11.418 46.3574 11.418C45.8151 11.418 45.3663 11.5957 45.011 11.951C44.6557 12.2969 44.478 12.7972 44.478 13.4517V13.5919C44.478 14.2464 44.6557 14.7513 45.011 15.1066C45.3663 15.4526 45.8151 15.6255 46.3574 15.6255ZM51.6351 17V10.0436H53.3742V10.9552H53.6266C53.7388 10.7121 53.9492 10.483 54.2577 10.268C54.5663 10.0436 55.0338 9.9314 55.6602 9.9314C56.2025 9.9314 56.6747 10.0576 57.0768 10.3101C57.4882 10.5532 57.8061 10.8944 58.0305 11.3339C58.2549 11.764 58.3671 12.2689 58.3671 12.8486V17H56.5999V12.9888C56.5999 12.4652 56.469 12.0726 56.2072 11.8108C55.9548 11.5489 55.5901 11.418 55.1133 11.418C54.571 11.418 54.1502 11.6004 53.851 11.965C53.5518 12.3203 53.4022 12.8206 53.4022 13.4657V17H51.6351Z" fill="black"/>
<defs>
<clipPath id="clip0_8038_43151">
<rect width="13.775" height="16" fill="white" transform="translate(5 4)"/>
</clipPath>
</defs>
</svg>
